{
	"asset":{
		"generator":"Khronos glTF Blender I/O v4.4.56",
		"version":"2.0"
	},
	"scene":0,
	"scenes":[
		{
			"name":"Scene",
			"nodes":[
				0
			]
		}
	],
	"nodes":[
		{
			"mesh":0,
			"name":"Mesh_0.001",
			"scale":[
				0.008100000210106373,
				0.008100000210106373,
				0.008100000210106373
			]
		}
	],
	"materials":[
		{
			"alphaMode":"MASK",
			"doubleSided":true,
			"name":"Material_0.001",
			"normalTexture":{
				"index":0
			},
			"pbrMetallicRoughness":{
				"baseColorFactor":[
					0.5879999995231628,
					0.5879999995231628,
					0.5879999995231628,
					1
				],
				"baseColorTexture":{
					"index":1
				},
				"metallicRoughnessTexture":{
					"index":2
				}
			}
		},
		{
			"alphaMode":"MASK",
			"doubleSided":true,
			"name":"Material_3.001",
			"normalTexture":{
				"index":3
			},
			"pbrMetallicRoughness":{
				"baseColorFactor":[
					0.5879999995231628,
					0.5879999995231628,
					0.5879999995231628,
					1
				],
				"baseColorTexture":{
					"index":4
				},
				"metallicRoughnessTexture":{
					"index":5
				}
			}
		},
		{
			"name":"Material_1.001",
			"normalTexture":{
				"index":6
			},
			"pbrMetallicRoughness":{
				"baseColorFactor":[
					0.5879999995231628,
					0.5879999995231628,
					0.5879999995231628,
					1
				],
				"baseColorTexture":{
					"index":7
				},
				"metallicRoughnessTexture":{
					"index":8
				}
			}
		},
		{
			"name":"Material_4.001",
			"normalTexture":{
				"index":9
			},
			"pbrMetallicRoughness":{
				"baseColorFactor":[
					0.5879999995231628,
					0.5879999995231628,
					0.5879999995231628,
					1
				],
				"baseColorTexture":{
					"index":10
				},
				"metallicRoughnessTexture":{
					"index":11
				}
			}
		},
		{
			"name":"Material_5.001",
			"normalTexture":{
				"index":12
			},
			"pbrMetallicRoughness":{
				"baseColorFactor":[
					0.5879999995231628,
					0.5879999995231628,
					0.5879999995231628,
					1
				],
				"baseColorTexture":{
					"index":13
				},
				"metallicRoughnessTexture":{
					"index":14
				}
			}
		},
		{
			"name":"Material_6.001",
			"normalTexture":{
				"index":15
			},
			"pbrMetallicRoughness":{
				"baseColorFactor":[
					0.5879999995231628,
					0.5879999995231628,
					0.5879999995231628,
					1
				],
				"baseColorTexture":{
					"index":16
				},
				"metallicRoughnessTexture":{
					"index":17
				}
			}
		},
		{
			"name":"Material_7.001",
			"normalTexture":{
				"index":18
			},
			"pbrMetallicRoughness":{
				"baseColorFactor":[
					0.5879999995231628,
					0.5879999995231628,
					0.5879999995231628,
					1
				],
				"baseColorTexture":{
					"index":19
				},
				"metallicRoughnessTexture":{
					"index":20
				}
			}
		},
		{
			"name":"Material_8.001",
			"normalTexture":{
				"index":21
			},
			"pbrMetallicRoughness":{
				"baseColorFactor":[
					0.5879999995231628,
					0.5879999995231628,
					0.5879999995231628,
					1
				],
				"baseColorTexture":{
					"index":22
				},
				"metallicRoughnessTexture":{
					"index":23
				}
			}
		},
		{
			"name":"Material_9.001",
			"normalTexture":{
				"index":24
			},
			"pbrMetallicRoughness":{
				"baseColorFactor":[
					0.5879999995231628,
					0.5879999995231628,
					0.5879999995231628,
					1
				],
				"baseColorTexture":{
					"index":25
				},
				"metallicRoughnessTexture":{
					"index":26
				}
			}
		},
		{
			"name":"Material_10.001",
			"normalTexture":{
				"index":27
			},
			"pbrMetallicRoughness":{
				"baseColorFactor":[
					0.5879999995231628,
					0.5879999995231628,
					0.5879999995231628,
					1
				],
				"baseColorTexture":{
					"index":28
				},
				"metallicRoughnessTexture":{
					"index":29
				}
			}
		},
		{
			"name":"Material_11.001",
			"normalTexture":{
				"index":30
			},
			"pbrMetallicRoughness":{
				"baseColorFactor":[
					0.5879999995231628,
					0.5879999995231628,
					0.5879999995231628,
					1
				],
				"baseColorTexture":{
					"index":31
				},
				"metallicRoughnessTexture":{
					"index":32
				}
			}
		},
		{
			"name":"Material_12.001",
			"normalTexture":{
				"index":33
			},
			"pbrMetallicRoughness":{
				"baseColorFactor":[
					0.5879999995231628,
					0.5879999995231628,
					0.5879999995231628,
					1
				],
				"baseColorTexture":{
					"index":34
				},
				"metallicRoughnessTexture":{
					"index":35
				}
			}
		},
		{
			"name":"Material_2.001",
			"pbrMetallicRoughness":{
				"baseColorFactor":[
					0.5879999995231628,
					0.5879999995231628,
					0.5879999995231628,
					1
				],
				"baseColorTexture":{
					"index":36
				},
				"metallicFactor":0
			}
		},
		{
			"name":"Material_13.001",
			"normalTexture":{
				"index":37
			},
			"pbrMetallicRoughness":{
				"baseColorFactor":[
					0.5879999995231628,
					0.5879999995231628,
					0.5879999995231628,
					1
				],
				"baseColorTexture":{
					"index":38
				},
				"metallicRoughnessTexture":{
					"index":39
				}
			}
		},
		{
			"name":"Material_14.001",
			"normalTexture":{
				"index":40
			},
			"pbrMetallicRoughness":{
				"baseColorFactor":[
					0.5879999995231628,
					0.5879999995231628,
					0.5879999995231628,
					1
				],
				"baseColorTexture":{
					"index":41
				},
				"metallicRoughnessTexture":{
					"index":42
				}
			}
		},
		{
			"name":"Material_15.001",
			"normalTexture":{
				"index":43
			},
			"pbrMetallicRoughness":{
				"baseColorFactor":[
					0.5879999995231628,
					0.5879999995231628,
					0.5879999995231628,
					1
				],
				"baseColorTexture":{
					"index":44
				},
				"metallicRoughnessTexture":{
					"index":45
				}
			}
		},
		{
			"name":"Material_16.001",
			"normalTexture":{
				"index":46
			},
			"pbrMetallicRoughness":{
				"baseColorFactor":[
					0.5879999995231628,
					0.5879999995231628,
					0.5879999995231628,
					1
				],
				"baseColorTexture":{
					"index":47
				},
				"metallicRoughnessTexture":{
					"index":48
				}
			}
		},
		{
			"name":"Material_17.001",
			"normalTexture":{
				"index":49
			},
			"pbrMetallicRoughness":{
				"baseColorFactor":[
					0.5879999995231628,
					0.5879999995231628,
					0.5879999995231628,
					1
				],
				"baseColorTexture":{
					"index":50
				},
				"metallicRoughnessTexture":{
					"index":51
				}
			}
		},
		{
			"name":"Material_18.001",
			"normalTexture":{
				"index":52
			},
			"pbrMetallicRoughness":{
				"baseColorFactor":[
					0.5879999995231628,
					0.5879999995231628,
					0.5879999995231628,
					1
				],
				"baseColorTexture":{
					"index":53
				},
				"metallicRoughnessTexture":{
					"index":54
				}
			}
		},
		{
			"name":"Material_19.001",
			"normalTexture":{
				"index":55
			},
			"pbrMetallicRoughness":{
				"baseColorFactor":[
					0.5879999995231628,
					0.5879999995231628,
					0.5879999995231628,
					1
				],
				"baseColorTexture":{
					"index":56
				},
				"metallicRoughnessTexture":{
					"index":57
				}
			}
		},
		{
			"alphaMode":"MASK",
			"doubleSided":true,
			"name":"Material_20.001",
			"normalTexture":{
				"index":58
			},
			"pbrMetallicRoughness":{
				"baseColorFactor":[
					0.5879999995231628,
					0.5879999995231628,
					0.5879999995231628,
					1
				],
				"baseColorTexture":{
					"index":59
				},
				"metallicRoughnessTexture":{
					"index":60
				}
			}
		},
		{
			"name":"Material_21.001",
			"normalTexture":{
				"index":61
			},
			"pbrMetallicRoughness":{
				"baseColorFactor":[
					0.5879999995231628,
					0.5879999995231628,
					0.5879999995231628,
					1
				],
				"baseColorTexture":{
					"index":62
				},
				"metallicRoughnessTexture":{
					"index":63
				}
			}
		},
		{
			"name":"Material_22.001",
			"normalTexture":{
				"index":64
			},
			"pbrMetallicRoughness":{
				"baseColorFactor":[
					0.5879999995231628,
					0.5879999995231628,
					0.5879999995231628,
					1
				],
				"baseColorTexture":{
					"index":65
				},
				"metallicRoughnessTexture":{
					"index":66
				}
			}
		},
		{
			"name":"Material_23.001",
			"normalTexture":{
				"index":67
			},
			"pbrMetallicRoughness":{
				"baseColorFactor":[
					0.5879999995231628,
					0.5879999995231628,
					0.5879999995231628,
					1
				],
				"baseColorTexture":{
					"index":68
				},
				"metallicRoughnessTexture":{
					"index":69
				}
			}
		},
		{
			"name":"Material_24.001",
			"normalTexture":{
				"index":70
			},
			"pbrMetallicRoughness":{
				"baseColorFactor":[
					0.5879999995231628,
					0.5879999995231628,
					0.5879999995231628,
					1
				],
				"baseColorTexture":{
					"index":71
				},
				"metallicRoughnessTexture":{
					"index":72
				}
			}
		}
	],
	"meshes":[
		{
			"name":"Mesh_0.001",
			"primitives":[
				{
					"attributes":{
						"POSITION":0,
						"NORMAL":1,
						"TEXCOORD_0":2
					},
					"indices":3,
					"material":0
				},
				{
					"attributes":{
						"POSITION":4,
						"NORMAL":5,
						"TEXCOORD_0":6
					},
					"indices":7,
					"material":1
				},
				{
					"attributes":{
						"POSITION":8,
						"NORMAL":9,
						"TEXCOORD_0":10
					},
					"indices":11,
					"material":2
				},
				{
					"attributes":{
						"POSITION":12,
						"NORMAL":13,
						"TEXCOORD_0":14
					},
					"indices":15,
					"material":3
				},
				{
					"attributes":{
						"POSITION":16,
						"NORMAL":17,
						"TEXCOORD_0":18
					},
					"indices":19,
					"material":4
				},
				{
					"attributes":{
						"POSITION":20,
						"NORMAL":21,
						"TEXCOORD_0":22
					},
					"indices":23,
					"material":5
				},
				{
					"attributes":{
						"POSITION":24,
						"NORMAL":25,
						"TEXCOORD_0":26
					},
					"indices":27,
					"material":6
				},
				{
					"attributes":{
						"POSITION":28,
						"NORMAL":29,
						"TEXCOORD_0":30
					},
					"indices":31,
					"material":7
				},
				{
					"attributes":{
						"POSITION":32,
						"NORMAL":33,
						"TEXCOORD_0":34
					},
					"indices":35,
					"material":8
				},
				{
					"attributes":{
						"POSITION":36,
						"NORMAL":37,
						"TEXCOORD_0":38
					},
					"indices":39,
					"material":9
				},
				{
					"attributes":{
						"POSITION":40,
						"NORMAL":41,
						"TEXCOORD_0":42
					},
					"indices":43,
					"material":10
				},
				{
					"attributes":{
						"POSITION":44,
						"NORMAL":45,
						"TEXCOORD_0":46
					},
					"indices":47,
					"material":11
				},
				{
					"attributes":{
						"POSITION":48,
						"NORMAL":49,
						"TEXCOORD_0":50
					},
					"indices":51,
					"material":12
				},
				{
					"attributes":{
						"POSITION":52,
						"NORMAL":53,
						"TEXCOORD_0":54
					},
					"indices":55,
					"material":13
				},
				{
					"attributes":{
						"POSITION":56,
						"NORMAL":57,
						"TEXCOORD_0":58
					},
					"indices":59,
					"material":14
				},
				{
					"attributes":{
						"POSITION":60,
						"NORMAL":61,
						"TEXCOORD_0":62
					},
					"indices":63,
					"material":15
				},
				{
					"attributes":{
						"POSITION":64,
						"NORMAL":65,
						"TEXCOORD_0":66
					},
					"indices":67,
					"material":16
				},
				{
					"attributes":{
						"POSITION":68,
						"NORMAL":69,
						"TEXCOORD_0":70
					},
					"indices":71,
					"material":17
				},
				{
					"attributes":{
						"POSITION":72,
						"NORMAL":73,
						"TEXCOORD_0":74
					},
					"indices":75,
					"material":18
				},
				{
					"attributes":{
						"POSITION":76,
						"NORMAL":77,
						"TEXCOORD_0":78
					},
					"indices":71,
					"material":19
				},
				{
					"attributes":{
						"POSITION":79,
						"NORMAL":80,
						"TEXCOORD_0":81
					},
					"indices":82,
					"material":20
				},
				{
					"attributes":{
						"POSITION":83,
						"NORMAL":84,
						"TEXCOORD_0":85
					},
					"indices":86,
					"material":21
				},
				{
					"attributes":{
						"POSITION":87,
						"NORMAL":88,
						"TEXCOORD_0":89
					},
					"indices":90,
					"material":22
				},
				{
					"attributes":{
						"POSITION":91,
						"NORMAL":92,
						"TEXCOORD_0":93
					},
					"indices":94,
					"material":23
				},
				{
					"attributes":{
						"POSITION":95,
						"NORMAL":96,
						"TEXCOORD_0":97
					},
					"indices":98,
					"material":24
				}
			]
		}
	],
	"textures":[
		{
			"sampler":0,
			"source":0
		},
		{
			"sampler":0,
			"source":1
		},
		{
			"sampler":0,
			"source":2
		},
		{
			"sampler":0,
			"source":3
		},
		{
			"sampler":0,
			"source":4
		},
		{
			"sampler":0,
			"source":5
		},
		{
			"sampler":0,
			"source":6
		},
		{
			"sampler":0,
			"source":7
		},
		{
			"sampler":0,
			"source":8
		},
		{
			"sampler":0,
			"source":9
		},
		{
			"sampler":0,
			"source":10
		},
		{
			"sampler":0,
			"source":11
		},
		{
			"sampler":0,
			"source":12
		},
		{
			"sampler":0,
			"source":13
		},
		{
			"sampler":0,
			"source":14
		},
		{
			"sampler":0,
			"source":15
		},
		{
			"sampler":0,
			"source":16
		},
		{
			"sampler":0,
			"source":17
		},
		{
			"sampler":0,
			"source":18
		},
		{
			"sampler":0,
			"source":19
		},
		{
			"sampler":0,
			"source":20
		},
		{
			"sampler":0,
			"source":21
		},
		{
			"sampler":0,
			"source":22
		},
		{
			"sampler":0,
			"source":23
		},
		{
			"sampler":0,
			"source":24
		},
		{
			"sampler":0,
			"source":25
		},
		{
			"sampler":0,
			"source":26
		},
		{
			"sampler":0,
			"source":27
		},
		{
			"sampler":0,
			"source":28
		},
		{
			"sampler":0,
			"source":29
		},
		{
			"sampler":0,
			"source":30
		},
		{
			"sampler":0,
			"source":31
		},
		{
			"sampler":0,
			"source":32
		},
		{
			"sampler":0,
			"source":33
		},
		{
			"sampler":0,
			"source":34
		},
		{
			"sampler":0,
			"source":35
		},
		{
			"sampler":0,
			"source":36
		},
		{
			"sampler":0,
			"source":37
		},
		{
			"sampler":0,
			"source":38
		},
		{
			"sampler":0,
			"source":39
		},
		{
			"sampler":0,
			"source":40
		},
		{
			"sampler":0,
			"source":41
		},
		{
			"sampler":0,
			"source":42
		},
		{
			"sampler":0,
			"source":43
		},
		{
			"sampler":0,
			"source":44
		},
		{
			"sampler":0,
			"source":42
		},
		{
			"sampler":0,
			"source":45
		},
		{
			"sampler":0,
			"source":46
		},
		{
			"sampler":0,
			"source":42
		},
		{
			"sampler":0,
			"source":47
		},
		{
			"sampler":0,
			"source":48
		},
		{
			"sampler":0,
			"source":49
		},
		{
			"sampler":0,
			"source":50
		},
		{
			"sampler":0,
			"source":51
		},
		{
			"sampler":0,
			"source":49
		},
		{
			"sampler":0,
			"source":52
		},
		{
			"sampler":0,
			"source":53
		},
		{
			"sampler":0,
			"source":49
		},
		{
			"sampler":0,
			"source":54
		},
		{
			"sampler":0,
			"source":55
		},
		{
			"sampler":0,
			"source":56
		},
		{
			"sampler":0,
			"source":57
		},
		{
			"sampler":0,
			"source":58
		},
		{
			"sampler":0,
			"source":59
		},
		{
			"sampler":0,
			"source":60
		},
		{
			"sampler":0,
			"source":61
		},
		{
			"sampler":0,
			"source":62
		},
		{
			"sampler":0,
			"source":63
		},
		{
			"sampler":0,
			"source":64
		},
		{
			"sampler":0,
			"source":65
		},
		{
			"sampler":0,
			"source":66
		},
		{
			"sampler":0,
			"source":67
		},
		{
			"sampler":0,
			"source":68
		}
	],
	"images":[
		{
			"mimeType":"image/jpeg",
			"name":"8773302468495022225",
			"uri":"../textures/8773302468495022225.jpg"
		},
		{
			"mimeType":"image/png",
			"name":"5061699253647017043",
			"uri":"../textures/5061699253647017043.png"
		},
		{
			"mimeType":"image/jpeg",
			"name":"11872827283454512094",
			"uri":"../textures/11872827283454512094.jpg"
		},
		{
			"mimeType":"image/jpeg",
			"name":"12501374198249454378",
			"uri":"../textures/12501374198249454378.jpg"
		},
		{
			"mimeType":"image/png",
			"name":"8006627369776289000",
			"uri":"../textures/8006627369776289000.png"
		},
		{
			"mimeType":"image/jpeg",
			"name":"715093869573992647",
			"uri":"../textures/715093869573992647.jpg"
		},
		{
			"mimeType":"image/jpeg",
			"name":"4477655471536070370",
			"uri":"../textures/4477655471536070370.jpg"
		},
		{
			"mimeType":"image/jpeg",
			"name":"7268504077753552595",
			"uri":"../textures/7268504077753552595.jpg"
		},
		{
			"mimeType":"image/jpeg",
			"name":"8503262930880235456",
			"uri":"../textures/8503262930880235456.jpg"
		},
		{
			"mimeType":"image/jpeg",
			"name":"13982482287905699490",
			"uri":"../textures/13982482287905699490.jpg"
		},
		{
			"mimeType":"image/jpeg",
			"name":"8750083169368950601",
			"uri":"../textures/8750083169368950601.jpg"
		},
		{
			"mimeType":"image/jpeg",
			"name":"16885566240357350108",
			"uri":"../textures/16885566240357350108.jpg"
		},
		{
			"mimeType":"image/jpeg",
			"name":"16299174074766089871",
			"uri":"../textures/16299174074766089871.jpg"
		},
		{
			"mimeType":"image/jpeg",
			"name":"5792855332885324923",
			"uri":"../textures/5792855332885324923.jpg"
		},
		{
			"mimeType":"image/jpeg",
			"name":"11968150294050148237",
			"uri":"../textures/11968150294050148237.jpg"
		},
		{
			"mimeType":"image/jpeg",
			"name":"2051777328469649772",
			"uri":"../textures/2051777328469649772.jpg"
		},
		{
			"mimeType":"image/jpeg",
			"name":"14650633544276105767",
			"uri":"../textures/14650633544276105767.jpg"
		},
		{
			"mimeType":"image/jpeg",
			"name":"4871783166746854860",
			"uri":"../textures/4871783166746854860.jpg"
		},
		{
			"mimeType":"image/jpeg",
			"name":"10388182081421875623",
			"uri":"../textures/10388182081421875623.jpg"
		},
		{
			"mimeType":"image/jpeg",
			"name":"15295713303328085182",
			"uri":"../textures/15295713303328085182.jpg"
		},
		{
			"mimeType":"image/jpeg",
			"name":"9916269861720640319",
			"uri":"../textures/9916269861720640319.jpg"
		},
		{
			"mimeType":"image/jpeg",
			"name":"15722799267630235092",
			"uri":"../textures/15722799267630235092.jpg"
		},
		{
			"mimeType":"image/jpeg",
			"name":"6047387724914829168",
			"uri":"../textures/6047387724914829168.jpg"
		},
		{
			"mimeType":"image/jpeg",
			"name":"8051790464816141987",
			"uri":"../textures/8051790464816141987.jpg"
		},
		{
			"mimeType":"image/jpeg",
			"name":"14267839433702832875",
			"uri":"../textures/14267839433702832875.jpg"
		},
		{
			"mimeType":"image/jpeg",
			"name":"5823059166183034438",
			"uri":"../textures/5823059166183034438.jpg"
		},
		{
			"mimeType":"image/jpeg",
			"name":"13824894030729245199",
			"uri":"../textures/13824894030729245199.jpg"
		},
		{
			"mimeType":"image/jpeg",
			"name":"6667038893015345571",
			"uri":"../textures/6667038893015345571.jpg"
		},
		{
			"mimeType":"image/jpeg",
			"name":"7441062115984513793",
			"uri":"../textures/7441062115984513793.jpg"
		},
		{
			"mimeType":"image/jpeg",
			"name":"8114461559286000061",
			"uri":"../textures/8114461559286000061.jpg"
		},
		{
			"mimeType":"image/jpeg",
			"name":"3628158980083700836",
			"uri":"../textures/3628158980083700836.jpg"
		},
		{
			"mimeType":"image/jpeg",
			"name":"11490520546946913238",
			"uri":"../textures/11490520546946913238.jpg"
		},
		{
			"mimeType":"image/jpeg",
			"name":"3455394979645218238",
			"uri":"../textures/3455394979645218238.jpg"
		},
		{
			"mimeType":"image/jpeg",
			"name":"7645212358685992005",
			"uri":"../textures/7645212358685992005.jpg"
		},
		{
			"mimeType":"image/jpeg",
			"name":"6151467286084645207",
			"uri":"../textures/6151467286084645207.jpg"
		},
		{
			"mimeType":"image/jpeg",
			"name":"8783994986360286082",
			"uri":"../textures/8783994986360286082.jpg"
		},
		{
			"mimeType":"image/png",
			"name":"white",
			"uri":"../textures/white.png"
		},
		{
			"mimeType":"image/jpeg",
			"name":"2299742237651021498",
			"uri":"../textures/2299742237651021498.jpg"
		},
		{
			"mimeType":"image/jpeg",
			"name":"4975155472559461469",
			"uri":"../textures/4975155472559461469.jpg"
		},
		{
			"mimeType":"image/jpeg",
			"name":"3371964815757888145",
			"uri":"../textures/3371964815757888145.jpg"
		},
		{
			"mimeType":"image/jpeg",
			"name":"7056944414013900257",
			"uri":"../textures/7056944414013900257.jpg"
		},
		{
			"mimeType":"image/jpeg",
			"name":"4675343432951571524",
			"uri":"../textures/4675343432951571524.jpg"
		},
		{
			"mimeType":"image/jpeg",
			"name":"7815564343179553343",
			"uri":"../textures/7815564343179553343.jpg"
		},
		{
			"mimeType":"image/jpeg",
			"name":"2374361008830720677",
			"uri":"../textures/2374361008830720677.jpg"
		},
		{
			"mimeType":"image/jpeg",
			"name":"2775690330959970771",
			"uri":"../textures/2775690330959970771.jpg"
		},
		{
			"mimeType":"image/jpeg",
			"name":"332936164838540657",
			"uri":"../textures/332936164838540657.jpg"
		},
		{
			"mimeType":"image/jpeg",
			"name":"2185409758123873465",
			"uri":"../textures/2185409758123873465.jpg"
		},
		{
			"mimeType":"image/jpeg",
			"name":"6593109234861095314",
			"uri":"../textures/6593109234861095314.jpg"
		},
		{
			"mimeType":"image/jpeg",
			"name":"17876391417123941155",
			"uri":"../textures/17876391417123941155.jpg"
		},
		{
			"mimeType":"image/jpeg",
			"name":"466164707995436622",
			"uri":"../textures/466164707995436622.jpg"
		},
		{
			"mimeType":"image/jpeg",
			"name":"4601176305987539675",
			"uri":"../textures/4601176305987539675.jpg"
		},
		{
			"mimeType":"image/jpeg",
			"name":"11474523244911310074",
			"uri":"../textures/11474523244911310074.jpg"
		},
		{
			"mimeType":"image/jpeg",
			"name":"4910669866631290573",
			"uri":"../textures/4910669866631290573.jpg"
		},
		{
			"mimeType":"image/jpeg",
			"name":"9288698199695299068",
			"uri":"../textures/9288698199695299068.jpg"
		},
		{
			"mimeType":"image/jpeg",
			"name":"14170708867020035030",
			"uri":"../textures/14170708867020035030.jpg"
		},
		{
			"mimeType":"image/png",
			"name":"16275776544635328252",
			"uri":"../textures/16275776544635328252.png"
		},
		{
			"mimeType":"image/jpeg",
			"name":"1219024358953944284",
			"uri":"../textures/1219024358953944284.jpg"
		},
		{
			"mimeType":"image/jpeg",
			"name":"3827035219084910048",
			"uri":"../textures/3827035219084910048.jpg"
		},
		{
			"mimeType":"image/jpeg",
			"name":"755318871556304029",
			"uri":"../textures/755318871556304029.jpg"
		},
		{
			"mimeType":"image/jpeg",
			"name":"2411100444841994089",
			"uri":"../textures/2411100444841994089.jpg"
		},
		{
			"mimeType":"image/jpeg",
			"name":"10381718147657362067",
			"uri":"../textures/10381718147657362067.jpg"
		},
		{
			"mimeType":"image/jpeg",
			"name":"8481240838833932244",
			"uri":"../textures/8481240838833932244.jpg"
		},
		{
			"mimeType":"image/jpeg",
			"name":"17556969131407844942",
			"uri":"../textures/17556969131407844942.jpg"
		},
		{
			"mimeType":"image/jpeg",
			"name":"759203620573749278",
			"uri":"../textures/759203620573749278.jpg"
		},
		{
			"mimeType":"image/jpeg",
			"name":"6772804448157695701",
			"uri":"../textures/6772804448157695701.jpg"
		},
		{
			"mimeType":"image/jpeg",
			"name":"13196865903111448057",
			"uri":"../textures/13196865903111448057.jpg"
		},
		{
			"mimeType":"image/jpeg",
			"name":"14118779221266351425",
			"uri":"../textures/14118779221266351425.jpg"
		},
		{
			"mimeType":"image/jpeg",
			"name":"2969916736137545357",
			"uri":"../textures/2969916736137545357.jpg"
		},
		{
			"mimeType":"image/jpeg",
			"name":"8747919177698443163",
			"uri":"../textures/8747919177698443163.jpg"
		}
	],
	"accessors":[
		{
			"bufferView":0,
			"componentType":5126,
			"count":24162,
			"max":[
				20.589834213256836,
				-6.088908672332764,
				9.93697738647461
			],
			"min":[
				-20.459854125976562,
				-14.527298927307129,
				-10.31563949584961
			],
			"type":"VEC3"
		},
		{
			"bufferView":1,
			"componentType":5126,
			"count":24162,
			"type":"VEC3"
		},
		{
			"bufferView":2,
			"componentType":5126,
			"count":24162,
			"type":"VEC2"
		},
		{
			"bufferView":3,
			"componentType":5123,
			"count":94308,
			"type":"SCALAR"
		},
		{
			"bufferView":4,
			"componentType":5126,
			"count":3932,
			"max":[
				30.945148468017578,
				-11.154858589172363,
				7.317287921905518
			],
			"min":[
				-30.883060455322266,
				-12.181675910949707,
				-7.67231559753418
			],
			"type":"VEC3"
		},
		{
			"bufferView":5,
			"componentType":5126,
			"count":3932,
			"type":"VEC3"
		},
		{
			"bufferView":6,
			"componentType":5126,
			"count":3932,
			"type":"VEC2"
		},
		{
			"bufferView":7,
			"componentType":5123,
			"count":10416,
			"type":"SCALAR"
		},
		{
			"bufferView":8,
			"componentType":5126,
			"count":9848,
			"max":[
				30.85880470275879,
				-11.718996047973633,
				7.032595157623291
			],
			"min":[
				-30.809009552001953,
				-13.726669311523438,
				-7.332535743713379
			],
			"type":"VEC3"
		},
		{
			"bufferView":9,
			"componentType":5126,
			"count":9848,
			"type":"VEC3"
		},
		{
			"bufferView":10,
			"componentType":5126,
			"count":9848,
			"type":"VEC2"
		},
		{
			"bufferView":11,
			"componentType":5123,
			"count":53064,
			"type":"SCALAR"
		},
		{
			"bufferView":12,
			"componentType":5126,
			"count":2259,
			"max":[
				45.544517517089844,
				11.692791938781738,
				4.009798049926758
			],
			"min":[
				-45.3935432434082,
				-12.23169231414795,
				-4.390649318695068
			],
			"type":"VEC3"
		},
		{
			"bufferView":13,
			"componentType":5126,
			"count":2259,
			"type":"VEC3"
		},
		{
			"bufferView":14,
			"componentType":5126,
			"count":2259,
			"type":"VEC2"
		},
		{
			"bufferView":15,
			"componentType":5123,
			"count":12258,
			"type":"SCALAR"
		},
		{
			"bufferView":16,
			"componentType":5126,
			"count":1090,
			"max":[
				60.438720703125,
				31.31421661376953,
				35.712608337402344
			],
			"min":[
				-60.017147064208984,
				-17.80706214904785,
				-36.9121208190918
			],
			"type":"VEC3"
		},
		{
			"bufferView":17,
			"componentType":5126,
			"count":1090,
			"type":"VEC3"
		},
		{
			"bufferView":18,
			"componentType":5126,
			"count":1090,
			"type":"VEC2"
		},
		{
			"bufferView":19,
			"componentType":5123,
			"count":2388,
			"type":"SCALAR"
		},
		{
			"bufferView":20,
			"componentType":5126,
			"count":11388,
			"max":[
				32.94680404663086,
				28.908063888549805,
				9.249375343322754
			],
			"min":[
				-32.8802375793457,
				-6.545795440673828,
				-9.547966003417969
			],
			"type":"VEC3"
		},
		{
			"bufferView":21,
			"componentType":5126,
			"count":11388,
			"type":"VEC3"
		},
		{
			"bufferView":22,
			"componentType":5126,
			"count":11388,
			"type":"VEC2"
		},
		{
			"bufferView":23,
			"componentType":5123,
			"count":30504,
			"type":"SCALAR"
		},
		{
			"bufferView":24,
			"componentType":5126,
			"count":5075,
			"max":[
				45.622344970703125,
				28.53862190246582,
				20.218992233276367
			],
			"min":[
				-45.43279266357422,
				-6.398858547210693,
				-20.449377059936523
			],
			"type":"VEC3"
		},
		{
			"bufferView":25,
			"componentType":5126,
			"count":5075,
			"type":"VEC3"
		},
		{
			"bufferView":26,
			"componentType":5126,
			"count":5075,
			"type":"VEC2"
		},
		{
			"bufferView":27,
			"componentType":5123,
			"count":17628,
			"type":"SCALAR"
		},
		{
			"bufferView":28,
			"componentType":5126,
			"count":3532,
			"max":[
				33.06908416748047,
				-6.225741863250732,
				9.2760648727417
			],
			"min":[
				-33.025054931640625,
				-13.674335479736328,
				-9.506738662719727
			],
			"type":"VEC3"
		},
		{
			"bufferView":29,
			"componentType":5126,
			"count":3532,
			"type":"VEC3"
		},
		{
			"bufferView":30,
			"componentType":5126,
			"count":3532,
			"type":"VEC2"
		},
		{
			"bufferView":31,
			"componentType":5123,
			"count":8448,
			"type":"SCALAR"
		},
		{
			"bufferView":32,
			"componentType":5126,
			"count":23,
			"max":[
				45.622989654541016,
				0.25869855284690857,
				20.19507598876953
			],
			"min":[
				-45.52519226074219,
				-13.675851821899414,
				-20.458799362182617
			],
			"type":"VEC3"
		},
		{
			"bufferView":33,
			"componentType":5126,
			"count":23,
			"type":"VEC3"
		},
		{
			"bufferView":34,
			"componentType":5126,
			"count":23,
			"type":"VEC2"
		},
		{
			"bufferView":35,
			"componentType":5123,
			"count":63,
			"type":"SCALAR"
		},
		{
			"bufferView":36,
			"componentType":5126,
			"count":14174,
			"max":[
				45.658023834228516,
				9.585116386413574,
				20.24641990661621
			],
			"min":[
				-45.461219787597656,
				-7.503901958465576,
				-20.510028839111328
			],
			"type":"VEC3"
		},
		{
			"bufferView":37,
			"componentType":5126,
			"count":14174,
			"type":"VEC3"
		},
		{
			"bufferView":38,
			"componentType":5126,
			"count":14174,
			"type":"VEC2"
		},
		{
			"bufferView":39,
			"componentType":5123,
			"count":21264,
			"type":"SCALAR"
		},
		{
			"bufferView":40,
			"componentType":5126,
			"count":1176,
			"max":[
				46.066436767578125,
				10.302708625793457,
				21.22269058227539
			],
			"min":[
				-14.773822784423828,
				-13.666162490844727,
				-20.662382125854492
			],
			"type":"VEC3"
		},
		{
			"bufferView":41,
			"componentType":5126,
			"count":1176,
			"type":"VEC3"
		},
		{
			"bufferView":42,
			"componentType":5126,
			"count":1176,
			"type":"VEC2"
		},
		{
			"bufferView":43,
			"componentType":5123,
			"count":2640,
			"type":"SCALAR"
		},
		{
			"bufferView":44,
			"componentType":5126,
			"count":23260,
			"max":[
				32.462520599365234,
				9.728082656860352,
				8.88134765625
			],
			"min":[
				-32.37276840209961,
				3.295462131500244,
				-9.267949104309082
			],
			"type":"VEC3"
		},
		{
			"bufferView":45,
			"componentType":5126,
			"count":23260,
			"type":"VEC3"
		},
		{
			"bufferView":46,
			"componentType":5126,
			"count":23260,
			"type":"VEC2"
		},
		{
			"bufferView":47,
			"componentType":5123,
			"count":69624,
			"type":"SCALAR"
		},
		{
			"bufferView":48,
			"componentType":5126,
			"count":38,
			"max":[
				1.9401907920837402,
				-1.985732078552246,
				20.239076614379883
			],
			"min":[
				-1.7646228075027466,
				-5.03461217880249,
				20.010848999023438
			],
			"type":"VEC3"
		},
		{
			"bufferView":49,
			"componentType":5126,
			"count":38,
			"type":"VEC3"
		},
		{
			"bufferView":50,
			"componentType":5126,
			"count":38,
			"type":"VEC2"
		},
		{
			"bufferView":51,
			"componentType":5123,
			"count":54,
			"type":"SCALAR"
		},
		{
			"bufferView":52,
			"componentType":5126,
			"count":12430,
			"max":[
				29.892086029052734,
				15.94565486907959,
				8.026068687438965
			],
			"min":[
				-29.74097442626953,
				-4.426991939544678,
				-8.601219177246094
			],
			"type":"VEC3"
		},
		{
			"bufferView":53,
			"componentType":5126,
			"count":12430,
			"type":"VEC3"
		},
		{
			"bufferView":54,
			"componentType":5126,
			"count":12430,
			"type":"VEC2"
		},
		{
			"bufferView":55,
			"componentType":5123,
			"count":49488,
			"type":"SCALAR"
		},
		{
			"bufferView":56,
			"componentType":5126,
			"count":9994,
			"max":[
				23.947494506835938,
				3.760817766189575,
				9.465094566345215
			],
			"min":[
				-23.910852432250977,
				-2.277545213699341,
				-9.76197338104248
			],
			"type":"VEC3"
		},
		{
			"bufferView":57,
			"componentType":5126,
			"count":9994,
			"type":"VEC3"
		},
		{
			"bufferView":58,
			"componentType":5126,
			"count":9994,
			"type":"VEC2"
		},
		{
			"bufferView":59,
			"componentType":5123,
			"count":49536,
			"type":"SCALAR"
		},
		{
			"bufferView":60,
			"componentType":5126,
			"count":10003,
			"max":[
				23.844011306762695,
				3.760817766189575,
				9.465092658996582
			],
			"min":[
				-24.01433563232422,
				-2.277545213699341,
				-9.76197338104248
			],
			"type":"VEC3"
		},
		{
			"bufferView":61,
			"componentType":5126,
			"count":10003,
			"type":"VEC3"
		},
		{
			"bufferView":62,
			"componentType":5126,
			"count":10003,
			"type":"VEC2"
		},
		{
			"bufferView":63,
			"componentType":5123,
			"count":49536,
			"type":"SCALAR"
		},
		{
			"bufferView":64,
			"componentType":5126,
			"count":6667,
			"max":[
				11.660628318786621,
				3.760817766189575,
				9.465088844299316
			],
			"min":[
				-11.727466583251953,
				-2.277545213699341,
				-9.76197338104248
			],
			"type":"VEC3"
		},
		{
			"bufferView":65,
			"componentType":5126,
			"count":6667,
			"type":"VEC3"
		},
		{
			"bufferView":66,
			"componentType":5126,
			"count":6667,
			"type":"VEC2"
		},
		{
			"bufferView":67,
			"componentType":5123,
			"count":33024,
			"type":"SCALAR"
		},
		{
			"bufferView":68,
			"componentType":5126,
			"count":7739,
			"max":[
				29.55475616455078,
				-4.1362786293029785,
				8.171651840209961
			],
			"min":[
				-17.03838539123535,
				-13.602608680725098,
				-8.786245346069336
			],
			"type":"VEC3"
		},
		{
			"bufferView":69,
			"componentType":5126,
			"count":7739,
			"type":"VEC3"
		},
		{
			"bufferView":70,
			"componentType":5126,
			"count":7739,
			"type":"VEC2"
		},
		{
			"bufferView":71,
			"componentType":5123,
			"count":43008,
			"type":"SCALAR"
		},
		{
			"bufferView":72,
			"componentType":5126,
			"count":10248,
			"max":[
				29.55475616455078,
				-4.1362786293029785,
				8.171651840209961
			],
			"min":[
				-29.32564353942871,
				-13.602608680725098,
				-8.786245346069336
			],
			"type":"VEC3"
		},
		{
			"bufferView":73,
			"componentType":5126,
			"count":10248,
			"type":"VEC3"
		},
		{
			"bufferView":74,
			"componentType":5126,
			"count":10248,
			"type":"VEC2"
		},
		{
			"bufferView":75,
			"componentType":5123,
			"count":56832,
			"type":"SCALAR"
		},
		{
			"bufferView":76,
			"componentType":5126,
			"count":7739,
			"max":[
				17.150081634521484,
				-4.1362786293029785,
				8.171651840209961
			],
			"min":[
				-29.32564353942871,
				-13.602608680725098,
				-8.586328506469727
			],
			"type":"VEC3"
		},
		{
			"bufferView":77,
			"componentType":5126,
			"count":7739,
			"type":"VEC3"
		},
		{
			"bufferView":78,
			"componentType":5126,
			"count":7739,
			"type":"VEC2"
		},
		{
			"bufferView":79,
			"componentType":5126,
			"count":78,
			"max":[
				19.327648162841797,
				-6.447148323059082,
				5.893181800842285
			],
			"min":[
				-19.282150268554688,
				-9.13493537902832,
				-6.327339172363281
			],
			"type":"VEC3"
		},
		{
			"bufferView":80,
			"componentType":5126,
			"count":78,
			"type":"VEC3"
		},
		{
			"bufferView":81,
			"componentType":5126,
			"count":78,
			"type":"VEC2"
		},
		{
			"bufferView":82,
			"componentType":5123,
			"count":96,
			"type":"SCALAR"
		},
		{
			"bufferView":83,
			"componentType":5126,
			"count":11828,
			"max":[
				19.63600730895996,
				-6.360601902008057,
				6.738094806671143
			],
			"min":[
				-19.590505599975586,
				-10.303215026855469,
				-7.1722493171691895
			],
			"type":"VEC3"
		},
		{
			"bufferView":84,
			"componentType":5126,
			"count":11828,
			"type":"VEC3"
		},
		{
			"bufferView":85,
			"componentType":5126,
			"count":11828,
			"type":"VEC2"
		},
		{
			"bufferView":86,
			"componentType":5123,
			"count":59484,
			"type":"SCALAR"
		},
		{
			"bufferView":87,
			"componentType":5126,
			"count":5308,
			"max":[
				42.02130889892578,
				-9.158419609069824,
				16.997629165649414
			],
			"min":[
				-40.34016036987305,
				-13.615425109863281,
				-16.394418716430664
			],
			"type":"VEC3"
		},
		{
			"bufferView":88,
			"componentType":5126,
			"count":5308,
			"type":"VEC3"
		},
		{
			"bufferView":89,
			"componentType":5126,
			"count":5308,
			"type":"VEC2"
		},
		{
			"bufferView":90,
			"componentType":5123,
			"count":27552,
			"type":"SCALAR"
		},
		{
			"bufferView":91,
			"componentType":5126,
			"count":1732,
			"max":[
				45.516502380371094,
				-4.76693868637085,
				2.4840147495269775
			],
			"min":[
				-45.36552429199219,
				-10.92881965637207,
				-2.767482042312622
			],
			"type":"VEC3"
		},
		{
			"bufferView":92,
			"componentType":5126,
			"count":1732,
			"type":"VEC3"
		},
		{
			"bufferView":93,
			"componentType":5126,
			"count":1732,
			"type":"VEC2"
		},
		{
			"bufferView":94,
			"componentType":5123,
			"count":9126,
			"type":"SCALAR"
		},
		{
			"bufferView":95,
			"componentType":5126,
			"count":11970,
			"max":[
				62.21255874633789,
				34.05546569824219,
				37.90310287475586
			],
			"min":[
				-61.815914154052734,
				29.09147071838379,
				-38.371341705322266
			],
			"type":"VEC3"
		},
		{
			"bufferView":96,
			"componentType":5126,
			"count":11970,
			"type":"VEC3"
		},
		{
			"bufferView":97,
			"componentType":5126,
			"count":11970,
			"type":"VEC2"
		},
		{
			"bufferView":98,
			"componentType":5123,
			"count":43452,
			"type":"SCALAR"
		}
	],
	"bufferViews":[
		{
			"buffer":0,
			"byteLength":289944,
			"byteOffset":0,
			"target":34962
		},
		{
			"buffer":0,
			"byteLength":289944,
			"byteOffset":289944,
			"target":34962
		},
		{
			"buffer":0,
			"byteLength":193296,
			"byteOffset":579888,
			"target":34962
		},
		{
			"buffer":0,
			"byteLength":188616,
			"byteOffset":773184,
			"target":34963
		},
		{
			"buffer":0,
			"byteLength":47184,
			"byteOffset":961800,
			"target":34962
		},
		{
			"buffer":0,
			"byteLength":47184,
			"byteOffset":1008984,
			"target":34962
		},
		{
			"buffer":0,
			"byteLength":31456,
			"byteOffset":1056168,
			"target":34962
		},
		{
			"buffer":0,
			"byteLength":20832,
			"byteOffset":1087624,
			"target":34963
		},
		{
			"buffer":0,
			"byteLength":118176,
			"byteOffset":1108456,
			"target":34962
		},
		{
			"buffer":0,
			"byteLength":118176,
			"byteOffset":1226632,
			"target":34962
		},
		{
			"buffer":0,
			"byteLength":78784,
			"byteOffset":1344808,
			"target":34962
		},
		{
			"buffer":0,
			"byteLength":106128,
			"byteOffset":1423592,
			"target":34963
		},
		{
			"buffer":0,
			"byteLength":27108,
			"byteOffset":1529720,
			"target":34962
		},
		{
			"buffer":0,
			"byteLength":27108,
			"byteOffset":1556828,
			"target":34962
		},
		{
			"buffer":0,
			"byteLength":18072,
			"byteOffset":1583936,
			"target":34962
		},
		{
			"buffer":0,
			"byteLength":24516,
			"byteOffset":1602008,
			"target":34963
		},
		{
			"buffer":0,
			"byteLength":13080,
			"byteOffset":1626524,
			"target":34962
		},
		{
			"buffer":0,
			"byteLength":13080,
			"byteOffset":1639604,
			"target":34962
		},
		{
			"buffer":0,
			"byteLength":8720,
			"byteOffset":1652684,
			"target":34962
		},
		{
			"buffer":0,
			"byteLength":4776,
			"byteOffset":1661404,
			"target":34963
		},
		{
			"buffer":0,
			"byteLength":136656,
			"byteOffset":1666180,
			"target":34962
		},
		{
			"buffer":0,
			"byteLength":136656,
			"byteOffset":1802836,
			"target":34962
		},
		{
			"buffer":0,
			"byteLength":91104,
			"byteOffset":1939492,
			"target":34962
		},
		{
			"buffer":0,
			"byteLength":61008,
			"byteOffset":2030596,
			"target":34963
		},
		{
			"buffer":0,
			"byteLength":60900,
			"byteOffset":2091604,
			"target":34962
		},
		{
			"buffer":0,
			"byteLength":60900,
			"byteOffset":2152504,
			"target":34962
		},
		{
			"buffer":0,
			"byteLength":40600,
			"byteOffset":2213404,
			"target":34962
		},
		{
			"buffer":0,
			"byteLength":35256,
			"byteOffset":2254004,
			"target":34963
		},
		{
			"buffer":0,
			"byteLength":42384,
			"byteOffset":2289260,
			"target":34962
		},
		{
			"buffer":0,
			"byteLength":42384,
			"byteOffset":2331644,
			"target":34962
		},
		{
			"buffer":0,
			"byteLength":28256,
			"byteOffset":2374028,
			"target":34962
		},
		{
			"buffer":0,
			"byteLength":16896,
			"byteOffset":2402284,
			"target":34963
		},
		{
			"buffer":0,
			"byteLength":276,
			"byteOffset":2419180,
			"target":34962
		},
		{
			"buffer":0,
			"byteLength":276,
			"byteOffset":2419456,
			"target":34962
		},
		{
			"buffer":0,
			"byteLength":184,
			"byteOffset":2419732,
			"target":34962
		},
		{
			"buffer":0,
			"byteLength":126,
			"byteOffset":2419916,
			"target":34963
		},
		{
			"buffer":0,
			"byteLength":170088,
			"byteOffset":2420044,
			"target":34962
		},
		{
			"buffer":0,
			"byteLength":170088,
			"byteOffset":2590132,
			"target":34962
		},
		{
			"buffer":0,
			"byteLength":113392,
			"byteOffset":2760220,
			"target":34962
		},
		{
			"buffer":0,
			"byteLength":42528,
			"byteOffset":2873612,
			"target":34963
		},
		{
			"buffer":0,
			"byteLength":14112,
			"byteOffset":2916140,
			"target":34962
		},
		{
			"buffer":0,
			"byteLength":14112,
			"byteOffset":2930252,
			"target":34962
		},
		{
			"buffer":0,
			"byteLength":9408,
			"byteOffset":2944364,
			"target":34962
		},
		{
			"buffer":0,
			"byteLength":5280,
			"byteOffset":2953772,
			"target":34963
		},
		{
			"buffer":0,
			"byteLength":279120,
			"byteOffset":2959052,
			"target":34962
		},
		{
			"buffer":0,
			"byteLength":279120,
			"byteOffset":3238172,
			"target":34962
		},
		{
			"buffer":0,
			"byteLength":186080,
			"byteOffset":3517292,
			"target":34962
		},
		{
			"buffer":0,
			"byteLength":139248,
			"byteOffset":3703372,
			"target":34963
		},
		{
			"buffer":0,
			"byteLength":456,
			"byteOffset":3842620,
			"target":34962
		},
		{
			"buffer":0,
			"byteLength":456,
			"byteOffset":3843076,
			"target":34962
		},
		{
			"buffer":0,
			"byteLength":304,
			"byteOffset":3843532,
			"target":34962
		},
		{
			"buffer":0,
			"byteLength":108,
			"byteOffset":3843836,
			"target":34963
		},
		{
			"buffer":0,
			"byteLength":149160,
			"byteOffset":3843944,
			"target":34962
		},
		{
			"buffer":0,
			"byteLength":149160,
			"byteOffset":3993104,
			"target":34962
		},
		{
			"buffer":0,
			"byteLength":99440,
			"byteOffset":4142264,
			"target":34962
		},
		{
			"buffer":0,
			"byteLength":98976,
			"byteOffset":4241704,
			"target":34963
		},
		{
			"buffer":0,
			"byteLength":119928,
			"byteOffset":4340680,
			"target":34962
		},
		{
			"buffer":0,
			"byteLength":119928,
			"byteOffset":4460608,
			"target":34962
		},
		{
			"buffer":0,
			"byteLength":79952,
			"byteOffset":4580536,
			"target":34962
		},
		{
			"buffer":0,
			"byteLength":99072,
			"byteOffset":4660488,
			"target":34963
		},
		{
			"buffer":0,
			"byteLength":120036,
			"byteOffset":4759560,
			"target":34962
		},
		{
			"buffer":0,
			"byteLength":120036,
			"byteOffset":4879596,
			"target":34962
		},
		{
			"buffer":0,
			"byteLength":80024,
			"byteOffset":4999632,
			"target":34962
		},
		{
			"buffer":0,
			"byteLength":99072,
			"byteOffset":5079656,
			"target":34963
		},
		{
			"buffer":0,
			"byteLength":80004,
			"byteOffset":5178728,
			"target":34962
		},
		{
			"buffer":0,
			"byteLength":80004,
			"byteOffset":5258732,
			"target":34962
		},
		{
			"buffer":0,
			"byteLength":53336,
			"byteOffset":5338736,
			"target":34962
		},
		{
			"buffer":0,
			"byteLength":66048,
			"byteOffset":5392072,
			"target":34963
		},
		{
			"buffer":0,
			"byteLength":92868,
			"byteOffset":5458120,
			"target":34962
		},
		{
			"buffer":0,
			"byteLength":92868,
			"byteOffset":5550988,
			"target":34962
		},
		{
			"buffer":0,
			"byteLength":61912,
			"byteOffset":5643856,
			"target":34962
		},
		{
			"buffer":0,
			"byteLength":86016,
			"byteOffset":5705768,
			"target":34963
		},
		{
			"buffer":0,
			"byteLength":122976,
			"byteOffset":5791784,
			"target":34962
		},
		{
			"buffer":0,
			"byteLength":122976,
			"byteOffset":5914760,
			"target":34962
		},
		{
			"buffer":0,
			"byteLength":81984,
			"byteOffset":6037736,
			"target":34962
		},
		{
			"buffer":0,
			"byteLength":113664,
			"byteOffset":6119720,
			"target":34963
		},
		{
			"buffer":0,
			"byteLength":92868,
			"byteOffset":6233384,
			"target":34962
		},
		{
			"buffer":0,
			"byteLength":92868,
			"byteOffset":6326252,
			"target":34962
		},
		{
			"buffer":0,
			"byteLength":61912,
			"byteOffset":6419120,
			"target":34962
		},
		{
			"buffer":0,
			"byteLength":936,
			"byteOffset":6481032,
			"target":34962
		},
		{
			"buffer":0,
			"byteLength":936,
			"byteOffset":6481968,
			"target":34962
		},
		{
			"buffer":0,
			"byteLength":624,
			"byteOffset":6482904,
			"target":34962
		},
		{
			"buffer":0,
			"byteLength":192,
			"byteOffset":6483528,
			"target":34963
		},
		{
			"buffer":0,
			"byteLength":141936,
			"byteOffset":6483720,
			"target":34962
		},
		{
			"buffer":0,
			"byteLength":141936,
			"byteOffset":6625656,
			"target":34962
		},
		{
			"buffer":0,
			"byteLength":94624,
			"byteOffset":6767592,
			"target":34962
		},
		{
			"buffer":0,
			"byteLength":118968,
			"byteOffset":6862216,
			"target":34963
		},
		{
			"buffer":0,
			"byteLength":63696,
			"byteOffset":6981184,
			"target":34962
		},
		{
			"buffer":0,
			"byteLength":63696,
			"byteOffset":7044880,
			"target":34962
		},
		{
			"buffer":0,
			"byteLength":42464,
			"byteOffset":7108576,
			"target":34962
		},
		{
			"buffer":0,
			"byteLength":55104,
			"byteOffset":7151040,
			"target":34963
		},
		{
			"buffer":0,
			"byteLength":20784,
			"byteOffset":7206144,
			"target":34962
		},
		{
			"buffer":0,
			"byteLength":20784,
			"byteOffset":7226928,
			"target":34962
		},
		{
			"buffer":0,
			"byteLength":13856,
			"byteOffset":7247712,
			"target":34962
		},
		{
			"buffer":0,
			"byteLength":18252,
			"byteOffset":7261568,
			"target":34963
		},
		{
			"buffer":0,
			"byteLength":143640,
			"byteOffset":7279820,
			"target":34962
		},
		{
			"buffer":0,
			"byteLength":143640,
			"byteOffset":7423460,
			"target":34962
		},
		{
			"buffer":0,
			"byteLength":95760,
			"byteOffset":7567100,
			"target":34962
		},
		{
			"buffer":0,
			"byteLength":86904,
			"byteOffset":7662860,
			"target":34963
		}
	],
	"samplers":[
		{
			"magFilter":9729,
			"minFilter":9987
		}
	],
	"buffers":[
		{
			"byteLength":7749764,
			"uri":"Sponza.bin"
		}
	]
}
